<?xml version="1.0"?>
<svg xmlns="http://www.w3.org/2000/svg" xmlns:xlink="http://www.w3.org/1999/xlink" xmlns:svgjs="http://svgjs.com/svgjs" version="1.1" width="512" height="512" x="0" y="0" viewBox="0 0 512 512" style="enable-background:new 0 0 512 512" xml:space="preserve" class=""><g><g xmlns="http://www.w3.org/2000/svg"><path d="m286 241h-60c-8.291 0-15 6.709-15 15v135h-30c-5.684 0-10.869 3.208-13.418 8.291-2.534 5.083-1.992 11.162 1.421 15.703l75 91c2.827 3.779 7.28 6.006 11.997 6.006s9.17-2.227 11.997-6.006l75-91c3.413-4.541 3.955-10.62 1.421-15.703-2.549-5.083-7.734-8.291-13.418-8.291h-30v-135c0-8.291-6.709-15-15-15z" fill="#000000" data-original="#000000" style="" class=""/><path d="m419.491 151.015c-6.167-30.205-30.703-53.848-62.446-58.872-13.096-52.72-61.011-92.143-116.045-92.143-54.917 0-102.305 38.837-115.737 91.117-1.407-.073-2.827-.117-4.263-.117-66.167 0-121 53.833-121 120s54.833 120 121 120h60v-75c0-24.814 20.186-45 45-45h60c24.814 0 45 20.186 45 45v75h90c49.629 0 91-40.371 91-90 0-50.127-42.06-91.23-92.509-89.985z" fill="#000000" data-original="#000000" style="" class=""/></g></g></svg>
